<svg width="21" height="20" viewBox="0 0 21 20" fill="none" xmlns="http://www.w3.org/2000/svg">
<path d="M10.2525 4.67972C10.2768 3.92603 10.4844 2.81575 11.2069 2.08635C11.8776 1.40928 12.694 1.0793 13.2025 0.92844C13.3988 0.8702 13.5872 1.01823 13.5775 1.22278C13.5435 1.94428 13.3537 3.02043 12.8643 3.59695C12.4028 4.14042 11.6606 4.8611 10.5733 4.98235C10.3954 5.0022 10.2468 4.85869 10.2525 4.67972Z" fill="#191B1C"/>
<path d="M12.1142 18.4746C12.6363 18.6746 13.1642 18.8768 13.6419 18.8768C14.6639 18.8768 17.6398 16.5189 17.747 14.0699C17.7525 13.9441 17.6774 13.8318 17.5675 13.7703C16.8106 13.3467 15.5744 12.292 15.5314 10.7575C15.4813 8.96932 16.3791 7.54901 17.0586 6.96149C17.2116 6.82926 17.2641 6.59611 17.1276 6.44701C16.5093 5.77184 15.2655 4.84312 14.1307 4.86592C13.3051 4.88251 12.5612 5.19005 11.9229 5.45395C11.4332 5.65642 11.0056 5.8332 10.6508 5.8332C10.3149 5.8332 9.91152 5.65756 9.44859 5.45596C8.82516 5.18447 8.09367 4.86592 7.27311 4.86592C5.75316 4.86592 2.75001 6.12632 2.75 10.992C2.75 13.5714 5.4128 18.9452 7.65976 18.8768C8.14496 18.8768 8.66348 18.6759 9.17802 18.4766C9.68471 18.2802 10.1875 18.0854 10.6508 18.0854C11.0982 18.0854 11.6034 18.279 12.1142 18.4746Z" fill="#191B1C"/>
</svg>
