<svg width="20" height="20" viewBox="0 0 20 20" fill="none" xmlns="http://www.w3.org/2000/svg">
<path fillRule="evenodd" clipRule="evenodd" d="M10.0005 1.95654C14.4427 1.95654 18.0439 5.55771 18.0439 9.99996C18.0439 14.4422 14.4427 18.0434 10.0005 18.0434C5.5582 18.0434 1.95703 14.4422 1.95703 9.99996C1.95703 5.55771 5.5582 1.95654 10.0005 1.95654Z" fill="url(#paint0_linear_5754_698)"/>
<path d="M11.0446 17.9758V11.7629H12.7961L13.0283 9.57625H11.0446L11.0476 8.48174C11.0476 7.91141 11.1017 7.60596 11.9209 7.60596H13.016V5.41895H11.2641C9.15976 5.41895 8.4192 6.47965 8.4192 8.26369V9.57642H7.10742V11.7633H8.4192V17.8877C8.93024 17.9895 9.45857 18.0433 9.99952 18.0433C10.349 18.0433 10.6981 18.0208 11.0446 17.9758Z" fill="white"/>
<defs>
<linearGradient id="paint0_linear_5754_698" x1="10.0005" y1="1.80998" x2="10.0005" y2="18.7293" gradientUnits="userSpaceOnUse">
<stop stop-color="#00B2FF"/>
<stop offset="1" stop-color="#006AFF"/>
</linearGradient>
</defs>
</svg>
