<svg width="123" height="48" viewBox="0 0 123 48" fill="none" xmlns="http://www.w3.org/2000/svg">
<g clipPath="url(#clip0_3391_4506)">
<path d="M16.4509 0V1.73691C16.4509 3.33957 17.6655 4.6863 19.2619 4.84573C20.0422 4.92544 20.7743 5.00725 21.4309 5.08907V0H16.4509Z" fill="#7A24BC"/>
<path d="M24.4415 15.9888C24.0052 16.2867 23.4976 16.4335 22.9207 16.4335C22.4676 16.4335 22.1068 16.2888 21.8362 16.0035C21.5635 15.714 21.4292 15.3175 21.4292 14.8099V10.3942C19.7321 10.1509 18.0708 9.97675 16.4492 9.87186V14.8644C16.4492 16.6643 16.9485 18.0152 17.9428 18.9235C18.9371 19.8339 20.3636 20.287 22.2138 20.287C22.8955 20.287 23.5353 20.2199 24.1374 20.0773C24.7394 19.9388 25.2512 19.7374 25.6708 19.4752L24.4394 15.993L24.4415 15.9888Z" fill="#DDDDDD"/>
<path d="M33.9063 6.10017C33.0945 6.42321 32.4358 6.90779 31.9303 7.55388V5.85054H27.1895V20.05H32.1652V13.5261C32.1652 12.3409 32.4673 11.4598 33.0694 10.883C33.6714 10.304 34.5063 10.0187 35.5719 10.0187C35.8698 10.0187 36.2411 10.0418 36.6963 10.0942V5.61559C35.6517 5.61559 34.7182 5.77712 33.9063 6.10017Z" fill="#DDDDDD"/>
<path d="M52.7885 12.9765C52.7885 11.4556 52.4549 10.1425 51.7795 9.03278C51.1061 7.92308 50.1957 7.0798 49.0419 6.49244C47.8903 5.90718 46.6065 5.61559 45.1905 5.61559C43.7053 5.61559 42.3712 5.93025 41.1797 6.55957C39.9945 7.18678 39.0631 8.05524 38.3918 9.16493C37.7184 10.2746 37.3828 11.5291 37.3828 12.924C37.3828 14.319 37.7268 15.607 38.417 16.7251C39.1071 17.8432 40.0826 18.7158 41.3391 19.3452C42.5935 19.9745 44.0536 20.287 45.7129 20.287C48.3665 20.287 50.3845 19.5193 51.7627 17.9816L49.1426 15.2588C48.635 15.6951 48.1336 16.0098 47.6386 16.2007C47.1393 16.3916 46.5519 16.4902 45.8702 16.4902C44.9619 16.4902 44.2046 16.293 43.6025 15.8986C43.0005 15.5063 42.5935 14.9441 42.388 14.2099H52.7066C52.7612 13.4254 52.7864 13.0163 52.7864 12.9807L52.7885 12.9765ZM42.3125 11.5857C42.4509 10.8368 42.7781 10.2432 43.2942 9.80683C43.8102 9.37051 44.4521 9.14815 45.2199 9.14815C45.9877 9.14815 46.6296 9.37051 47.1435 9.80683C47.6595 10.2432 47.9868 10.8368 48.1252 11.5857H42.3125Z" fill="#DDDDDD"/>
<path d="M64.8663 5.84844V7.0798C63.9077 6.10226 62.5882 5.61349 60.9121 5.61349C59.6199 5.61349 58.4452 5.91137 57.388 6.50503C56.3286 7.10078 55.4937 7.95035 54.8707 9.05795C54.2519 10.1676 53.9414 11.4535 53.9414 12.9198C53.9414 14.3862 54.2519 15.6804 54.8707 16.7985C55.4937 17.9166 56.3286 18.7767 57.388 19.3787C58.4452 19.9808 59.6199 20.2807 60.9121 20.2807C62.7791 20.2807 64.1762 19.7311 65.1034 18.6319V20.0458H69.8421V5.84844H64.8663ZM65.1516 14.9798L65.1222 14.9966C65.1013 15.0113 65.0698 15.0302 65.0404 15.0469L61.489 17.0985L61.1618 17.2873C60.7926 17.4992 60.3751 17.6124 59.9514 17.6124C59.192 17.6124 58.5123 17.2579 58.0697 16.7104C57.732 16.2951 57.5306 15.7665 57.5306 15.1896V10.7089C57.5306 10.1572 57.7173 9.64741 58.0299 9.24045C58.4704 8.66148 59.1689 8.28809 59.9535 8.28809C60.3772 8.28809 60.7947 8.40136 61.1638 8.61323L62.7497 9.52994L65.0446 10.8536C65.5019 11.1179 65.8481 11.5102 66.0515 11.9717C66.1753 12.2528 66.2445 12.5632 66.255 12.8863C66.276 13.738 65.8648 14.5183 65.1537 14.9798H65.1516Z" fill="#DDDDDD"/>
<path d="M95.3774 7.18469C94.3348 6.13793 92.9419 5.6135 91.1987 5.6135C90.1855 5.6135 89.2499 5.80439 88.3941 6.18827C87.5382 6.57216 86.8313 7.12176 86.2733 7.83918C85.7824 7.08819 85.1447 6.5281 84.3601 6.1631C83.5756 5.796 82.6841 5.6135 81.6898 5.6135C80.8339 5.6135 80.043 5.75824 79.3172 6.04563C78.5914 6.33511 77.9684 6.76724 77.444 7.34202V5.84844H72.7031V20.0479H77.6789V12.9996C77.6789 11.9339 77.9055 11.1431 78.3607 10.6187C78.8159 10.0921 79.4263 9.82991 80.1941 9.82991C81.6247 9.82991 82.3421 10.8012 82.3421 12.7394V20.0479H87.32V12.9996C87.32 11.9339 87.5466 11.1431 88.0018 10.6187C88.457 10.0921 89.059 9.82991 89.8079 9.82991C90.4897 9.82991 91.0183 10.0691 91.3938 10.5389C91.7672 11.0109 91.956 11.743 91.956 12.7394V20.0479H96.936V11.9255C96.936 9.81313 96.4157 8.23355 95.3774 7.18469Z" fill="#DDDDDD"/>
<path d="M99.6621 0.610435V20.0479H104.64V0.610435H99.6621Z" fill="#DDDDDD"/>
<path d="M113.307 12.2779L110.872 18.29L105.617 5.85054H110.725L113.307 12.2779Z" fill="#DDDDDD"/>
<path d="M6.66645 9.26143C6.66645 9.26143 6.66225 9.26562 6.66016 9.26562C6.66016 9.26562 6.66435 9.26562 6.66645 9.26143Z" fill="#DDDDDD"/>
<path d="M24.6759 6.37497V10.0921C21.0972 9.43554 17.6632 9.04746 14.3803 8.94887C13.7678 8.92789 13.1615 8.92789 12.5574 8.9195C12.1735 8.91531 11.7875 8.91111 11.4016 8.91321C10.7701 8.91531 10.1387 8.92999 9.50942 8.95936C9.25769 8.97195 9.00597 8.98663 8.75424 9.00341C8.54027 9.0181 8.3284 9.03698 8.11653 9.05795C7.93823 9.07473 7.76202 9.09571 7.58581 9.11879C7.44107 9.13767 7.29842 9.15864 7.15368 9.18172C7.0404 9.2006 6.92503 9.22157 6.81175 9.24465C6.72575 9.26353 6.63764 9.28241 6.55164 9.30338C6.4887 9.32017 6.42787 9.33695 6.36494 9.35583C6.08804 9.44183 5.78807 9.61804 5.67269 9.89914C5.63913 9.97885 5.62444 10.0649 5.62444 10.1509C5.62444 10.4802 5.82583 10.711 6.22649 10.8431C6.62506 10.9732 7.29213 11.1116 8.21513 11.2501C9.38775 11.4242 10.3569 11.6277 11.1247 11.8521C11.8924 12.0829 12.5616 12.4961 13.1301 13.0982C13.6965 13.7002 13.9818 14.5435 13.9818 15.6259C13.9818 16.5174 13.7111 17.3146 13.1699 18.0236C12.6287 18.7305 11.8295 19.2843 10.7743 19.6871C9.71709 20.0878 8.44797 20.2891 6.96279 20.2891C5.77338 20.2891 4.60285 20.1549 3.45121 19.8822C2.29956 19.6116 1.37447 19.2571 0.673828 18.8228L2.1674 15.4182C2.8135 15.8189 3.58127 16.1378 4.4728 16.3727C5.36642 16.6097 6.24537 16.7272 7.12012 16.7272C7.92145 16.7272 8.49202 16.6454 8.83395 16.4797C9.17378 16.314 9.3458 16.0727 9.3458 15.7581C9.3458 15.4434 9.13812 15.2211 8.72907 15.091C8.31791 14.9609 7.66972 14.8351 6.77819 14.7113C5.64123 14.5729 4.67628 14.3862 3.88334 14.1617C3.0862 13.9351 2.40235 13.5156 1.82548 12.9052C1.2507 12.2947 0.961216 11.4389 0.961216 10.3376C0.961216 9.42925 1.23182 8.61953 1.77303 7.9126C2.04574 7.55599 2.38137 7.23923 2.78204 6.96023C2.79462 6.94765 2.80301 6.93926 2.8156 6.93506C5.26993 5.09536 11.3302 5.0618 16.4487 5.431C18.3052 5.56525 20.0358 5.75195 21.4287 5.92186C23.3921 6.1673 24.6759 6.38126 24.6759 6.38126V6.37497Z" fill="#DDDDDD"/>
<path d="M64.1472 13.4296C64.1472 13.4296 64.1304 13.4422 64.122 13.4464L60.2391 15.6867C59.8552 15.9091 59.377 15.6322 59.377 15.1896V10.7068C59.377 10.2641 59.8552 9.98933 60.2391 10.2096L63.6437 12.1752L64.1199 12.45C64.4933 12.666 64.5038 13.1967 64.1451 13.4275L64.1472 13.4296Z" fill="#7A24BC"/>
<path d="M52.5317 22.8798H46.0645C46.8091 22.8567 47.5853 22.8421 48.3929 22.8379C49.7208 22.8295 51.1053 22.8463 52.5317 22.8798Z" fill="#7A24BC"/>
<path d="M122.448 5.87571C120.368 10.7991 118.289 15.7203 116.3 20.6814C115.74 22.0785 115.182 23.4903 114.343 24.7426C111.297 29.2925 104.209 29.2485 99.3274 29.3513C91.4106 29.5191 83.475 28.8751 75.5875 28.3024C74.7191 28.2395 73.8548 28.1745 72.9864 28.1115C70.7439 27.9458 68.4805 27.778 66.2359 27.6207C59.8777 27.1801 53.6601 26.8277 48.4137 26.8613C43.9959 26.8907 40.9374 27.1948 38.8229 27.6207C36.507 28.0843 35.3239 28.6947 34.7324 29.2443C34.2855 29.6596 34.2247 30.0205 34.2247 30.3183C34.2247 30.8176 34.3716 31.17 34.7156 31.491C35.4351 32.1664 37.2979 33.0076 42.0912 33.1922C45.9027 33.339 50.5638 33.0412 55.0697 32.7538C65.0192 32.1203 73.6094 31.5728 76.7581 35.0277C77.7755 36.1437 78.1782 37.5827 77.9244 39.1917C76.9678 45.2583 68.4658 46.5715 62.1558 47.033C54.2411 47.6098 44.1427 47.0707 34.3757 46.5505C26.5534 46.1351 19.1673 45.7408 13.3251 45.9275C5.39996 46.1834 3.67354 47.463 3.30224 48L-0.00585938 45.7051C3.19316 41.0964 15.2257 41.4971 34.5897 42.5312C44.2308 43.0473 54.1992 43.578 61.8601 43.02C71.3774 42.3257 73.6828 40.2154 73.9429 38.5666C74.0289 38.017 73.8716 37.8449 73.7793 37.7422C73.3702 37.2932 72.0151 36.5129 67.5617 36.3472C64.0711 36.2171 59.8211 36.4856 55.3236 36.773C45.2755 37.4149 35.7833 38.017 31.9571 34.4278C30.8054 33.3474 30.195 31.9252 30.195 30.3183C30.195 29.3471 30.4404 28.4346 30.9166 27.6207C31.1956 27.1424 31.5522 26.6977 31.9864 26.2949C34.2709 24.1699 38.653 23.098 46.0537 22.8777H52.521C58.9086 23.033 66.1918 23.57 73.2779 24.0965C82.4555 24.7741 91.9455 25.4747 99.1365 25.3069C102.25 25.2335 105.568 25.1202 108.553 24.1322C111.414 23.184 112.17 19.9808 113.135 17.4887C114.542 13.8533 116.29 9.59497 117.71 5.93655C117.722 5.90718 117.733 5.87781 117.745 5.84844C117.745 5.84005 117.75 5.83166 117.754 5.82537C119.155 5.84005 121.047 5.86313 122.44 5.87571H122.448Z" fill="#7A24BC"/>
</g>
<defs>
<clipPath id="clip0_3391_4506">
<rect width="122.448" height="48" fill="white"/>
</clipPath>
</defs>
</svg>
